<svg xmlns="http://www.w3.org/2000/svg" height="20" viewBox="0 -960 960 960" width="20"><path d="m621.5-309.5 29-28q8-8 8-18t-8.106-18.063L518-505q4.5-10.667 6.75-21.833Q527-538 527-548.862q0-49.829-34.56-85.233Q457.88-669.5 407.5-669.5q-15.455 0-29.41 4.235-13.956 4.236-27.09 11.765l79.5 79-45.5 45-79-79q-7.588 13.134-11.544 27.09Q290.5-567.455 290.5-552q0 49.478 34.654 84.239T409.136-433q11.641 0 22.885-1.75 11.245-1.75 22.479-7.25l131.437 132.394Q594-301.5 603.75-301.5q9.75 0 17.75-8ZM480.276-106q-77.183 0-145.341-29.263-68.159-29.263-119.297-80.5Q164.5-267 135.25-335.046 106-403.091 106-480.458q0-77.449 29.263-145.107 29.263-67.659 80.5-118.797Q267-795.5 335.046-824.75 403.091-854 480.458-854q77.449 0 145.107 29.263 67.659 29.263 118.797 80.5Q795.5-693 824.75-625.188 854-557.377 854-480.276q0 77.183-29.263 145.341-29.263 68.159-80.5 119.297Q693-164.5 625.188-135.25 557.377-106 480.276-106Z"/></svg>