<svg xmlns="http://www.w3.org/2000/svg" height="20" viewBox="0 -960 960 960" width="20"><path d="M480.211-378Q463-378 450.5-390.289q-12.5-12.29-12.5-29.5Q438-437 450.289-449.5q12.29-12.5 29.5-12.5Q497-462 509.5-449.711q12.5 12.29 12.5 29.5Q522-403 509.711-390.5q-12.29 12.5-29.5 12.5Zm-156 0Q307-378 294.5-390.289q-12.5-12.29-12.5-29.5Q282-437 294.289-449.5q12.29-12.5 29.5-12.5Q341-462 353.5-449.711q12.5 12.29 12.5 29.5Q366-403 353.711-390.5q-12.29 12.5-29.5 12.5Zm312 0Q619-378 606.5-390.289q-12.5-12.29-12.5-29.5Q594-437 606.289-449.5q12.29-12.5 29.5-12.5Q653-462 665.5-449.711q12.5 12.29 12.5 29.5Q678-403 665.711-390.5q-12.29 12.5-29.5 12.5Zm-156 144Q463-234 450.5-246.289q-12.5-12.29-12.5-29.5Q438-293 450.289-305.5q12.29-12.5 29.5-12.5Q497-318 509.5-305.711q12.5 12.29 12.5 29.5Q522-259 509.711-246.5q-12.29 12.5-29.5 12.5Zm-156 0Q307-234 294.5-246.289q-12.5-12.29-12.5-29.5Q282-293 294.289-305.5q12.29-12.5 29.5-12.5Q341-318 353.5-305.711q12.5 12.29 12.5 29.5Q366-259 353.711-246.5q-12.29 12.5-29.5 12.5Zm312 0Q619-234 606.5-246.289q-12.5-12.29-12.5-29.5Q594-293 606.289-305.5q12.29-12.5 29.5-12.5Q653-318 665.5-305.711q12.5 12.29 12.5 29.5Q678-259 665.711-246.5q-12.29 12.5-29.5 12.5ZM210-66q-40.425 0-69.212-29.138Q112-124.275 112-164v-540q0-39.725 28.788-68.862Q169.575-802 210-802h40v-92h98v92h264v-92h98v92h40q40.425 0 69.213 29.138Q848-743.725 848-704v540q0 39.725-28.787 68.862Q790.425-66 750-66H210Zm0-98h540v-384H210v384Z"/></svg>