<svg xmlns="http://www.w3.org/2000/svg" height="20" viewBox="0 -960 960 960" width="20"><path d="M32-248v-73q0-47 44-75t116-28q6 0 9.5.5t8.5.5q-15 22-22.5 47.972T180-322v74H32Zm216 0v-74q0-31 15-56.5t47-44.5q32-19 74.5-28t95.957-9q53.543 0 95.043 9 41.5 9 73.5 28 32 18 47.5 44.188Q712-352.624 712-322v74H248Zm532 0v-74q0-27.37-8-52.62-8-25.25-23-48.38 3 0 6.614-.5 3.615-.5 12.386-.5 73.2 0 116.6 28.371Q928-367.258 928-321v73H780ZM192.089-468Q158-468 134-491.886t-24-57.939Q110-584 133.886-608t57.939-24Q226-632 250-608.15q24 23.849 24 58.061Q274-516 250.15-492q-23.849 24-58.061 24Zm576 0Q734-468 710-491.886t-24-57.939Q686-584 709.886-608t57.939-24Q802-632 826-608.15q24 23.849 24 58.061Q850-516 826.15-492q-23.849 24-58.061 24ZM480-507q-51.667 0-87.833-36.187Q356-579.374 356-631.07q0-50.93 36.187-87.43Q428.374-755 480.07-755q50.93 0 87.43 36.55Q604-681.9 604-631q0 51.667-36.55 87.833Q530.9-507 480-507Z"/></svg>